<mxfile host="app.diagrams.net" modified="2024-07-15T00:12:47.402Z" agent="Mozilla/5.0 (Windows NT 10.0; Win64; x64) AppleWebKit/537.36 (KHTML, like Gecko) Chrome/126.0.0.0 Safari/537.36" etag="y06l5QSsVGRYSx0tNUG9" version="24.6.5" type="github">
  <diagram name="Page-1" id="b5b7bab2-c9e2-2cf4-8b2a-24fd1a2a6d21">
    <mxGraphModel dx="749" dy="873" grid="1" gridSize="10" guides="1" tooltips="1" connect="1" arrows="1" fold="1" page="1" pageScale="1" pageWidth="827" pageHeight="1169" background="none" math="0" shadow="0">
      <root>
        <mxCell id="0" />
        <mxCell id="1" parent="0" />
        <mxCell id="qyitQCm9wswNX8XP0zgS-21" style="edgeStyle=none;curved=1;rounded=0;orthogonalLoop=1;jettySize=auto;html=1;entryX=0;entryY=0.5;entryDx=0;entryDy=0;fontSize=12;startSize=8;endSize=8;" edge="1" parent="1" source="qyitQCm9wswNX8XP0zgS-18" target="qyitQCm9wswNX8XP0zgS-14">
          <mxGeometry relative="1" as="geometry" />
        </mxCell>
        <mxCell id="qyitQCm9wswNX8XP0zgS-18" value="" style="rounded=0;whiteSpace=wrap;html=1;" vertex="1" parent="1">
          <mxGeometry x="360" y="70" width="160" height="150" as="geometry" />
        </mxCell>
        <mxCell id="qyitQCm9wswNX8XP0zgS-3" value="해외 언론사" style="rounded=0;whiteSpace=wrap;html=1;" vertex="1" parent="1">
          <mxGeometry x="375" y="150" width="120" height="40" as="geometry" />
        </mxCell>
        <mxCell id="qyitQCm9wswNX8XP0zgS-5" value="국가별 일반 현황" style="rounded=0;whiteSpace=wrap;html=1;" vertex="1" parent="1">
          <mxGeometry x="375" y="90" width="120" height="40" as="geometry" />
        </mxCell>
        <mxCell id="qyitQCm9wswNX8XP0zgS-14" value="국가별 핵심 이슈 파악" style="swimlane;whiteSpace=wrap;html=1;" vertex="1" parent="1">
          <mxGeometry x="590" y="45" width="150" height="200" as="geometry" />
        </mxCell>
        <mxCell id="qyitQCm9wswNX8XP0zgS-23" value="- 각 언론사에서 제공하는 API" style="text;html=1;align=center;verticalAlign=middle;whiteSpace=wrap;rounded=0;fontSize=16;" vertex="1" parent="qyitQCm9wswNX8XP0zgS-14">
          <mxGeometry x="10" y="85" width="130" height="30" as="geometry" />
        </mxCell>
        <mxCell id="qyitQCm9wswNX8XP0zgS-19" value="데이터" style="text;html=1;align=center;verticalAlign=middle;whiteSpace=wrap;rounded=0;fontSize=16;" vertex="1" parent="1">
          <mxGeometry x="405" y="30" width="60" height="30" as="geometry" />
        </mxCell>
      </root>
    </mxGraphModel>
  </diagram>
</mxfile>
